# xmcd
#
# Track frame offsets:
#	187
#	42612
#	94750
#	141837
#	163337
#	188787
#	205512
#	221775
#
# Disc length: 3873 seconds
#
# Revision: 1
# Processed by: cddbd v1.5.1PL0 Copyright (c) Steve Scherf et al.
# Submitted via: CDex 1.50Beta5
#
DISCID=780f1f08
DTITLE=さまざまなアーチスト - 能力開発
DYEAR=1900
DGENRE=Classical
TTITLE0=トッカータとフーガ ニ短調BWV.565
TTITLE1=ソナタ第21番ハ長調「ワルトシュタイン」より第1楽章
TTITLE2=弦楽四重奏曲第10番変ホ長調「ハープ」より第1楽章
TTITLE3=協奏曲第4番ト単調より第2楽章
TTITLE4=シャコンヌト短調
TTITLE5=木枯らしのエチュードイ短調作品25-11
TTITLE6=アラベスク第1番ホ長調
TTITLE7=ボレロ
EXTD=
EXTT0=
EXTT1=
EXTT2=
EXTT3=
EXTT4=
EXTT5=
EXTT6=
EXTT7=
PLAYORDER=
